# xmcd
#
# Track frame offsets:
#	150
#	16329
#	29755
#	45873
#	60657
#	75666
#	88526
#	104676
#	120624
#	136353
#
# Disc length: 2013 seconds
#
# Revision: 0
# Processed by: cddbd v1.5.2PL0 Copyright (c) Steve Scherf et al.
# Submitted via: EasyCDDAExtractor 16.0.6.1
#
DISCID=7c07db0a
DTITLE=Συλλογικός δίσκος - Λαϊκό τραγούδι 1954-1967, 1956-1
DYEAR=2008
DGENRE=Λαϊκή
TTITLE0=Γαβαλάς Πάνος-Τσακίρης Δ.-Τσόγκας Α.-Γκίκα Β. - Αλήτης τουρτουρίζει [Σ
TTITLE0=πύρος Περιστέρης]
TTITLE1=Γκρέϋ Καίτη - Τι να μού κάνει ένα αχ! [Θ. Πουλίσης]
TTITLE2=Καζαντζίδης Στέλιος - Αν ήξερες, ποιος είμ' εγώ [Μανώλης Χιώτης-Χρ. Κο
TTITLE2=λοκοτρώνης]
TTITLE3=Γκρέϋ Καίτη-Μπιθικώτσης Γρηγόρης - Εγώ είμαι το μπεγλέρι σου [Βασίλης 
TTITLE3=Τσιτσάνης]
TTITLE4=Λύδια Γιώτα-Καζαντζίδης Στέλιος - Τύραννε, μαύρε τύραννε [Μπάμπης Μπακ
TTITLE4=άλης]
TTITLE5=Λύδια Γιώτα-Κλειδωνιάρης Αντώνης - Θάλασσα πώς με πίκρανες [Θεόδωρος Δ
TTITLE5=ερβενιώτης]
TTITLE6=Ντάλια Ρένα - Χαράματα θα φύγω [Γρηγόρης Μπιθικώτσης-Κώστας Βίρβος]
TTITLE7=Κουλουκάκης Ιωάννης - Πού να βρω δικαιοσύνη [Μανώλης Χιώτης-Χρ. Κολοκο
TTITLE7=τρώνης]
TTITLE8=Γαβαλάς Πάνος - Το παραμύθι της κοινωνίας [Απόστολος Καλδάρας]
TTITLE9=Γκρέϋ Καίτη - Βάσανα, πίκρες και απονιά [Παναγιώτης Πετσάς]
EXTD=
EXTT0=
EXTT1=
EXTT2=
EXTT3=
EXTT4=
EXTT5=
EXTT6=
EXTT7=
EXTT8=
EXTT9=
PLAYORDER=
